<?xml version="1.0" encoding="utf-8"?>
<!-- Generator: Adobe Illustrator 16.0.0, SVG Export Plug-In . SVG Version: 6.00 Build 0)  -->
<!DOCTYPE svg PUBLIC "-//W3C//DTD SVG 1.1//EN" "http://www.w3.org/Graphics/SVG/1.1/DTD/svg11.dtd">
<svg version="1.1" id="Your_Icon" xmlns="http://www.w3.org/2000/svg" xmlns:xlink="http://www.w3.org/1999/xlink" x="0px" y="0px"
	 width="100px" height="100px" viewBox="0 0 100 100" enable-background="new 0 0 100 100" xml:space="preserve">
<path d="M85.608,79.036c-2.109-4.742-12.402-7.881-19.241-10.826c-6.839-2.946-5.905-4.733-6.15-7.175
	c-0.015-0.148-0.027-0.301-0.038-0.457c1.453-1.259,2.74-2.807,3.804-4.566c4.243,0.995,8.999,0.908,13.156-2.105
	c-6.64-6.639-2.883-15.476-7.674-30.143c-4.077-12.471-20.787-11.857-22.941-7.476c-8.863-3.131-15.547,1.061-18.007,14.27
	c-2.83,15.172,0.984,16.767-5.655,23.404c4.613,2.637,8.879,2.304,12.653,1.021c1.192,2.242,2.733,4.193,4.518,5.709
	c-0.009,0.116-0.019,0.23-0.03,0.343c-0.246,2.442,0.473,4.229-6.366,7.175c-6.838,2.946-17.132,6.085-19.241,10.827
	c-2.109,4.741-1.267,7.531-1.267,7.531h73.739C86.868,86.567,87.718,83.777,85.608,79.036z"/>
</svg>
