<?xml version="1.0" encoding="utf-8"?>
<!-- Generator: Adobe Illustrator 16.0.0, SVG Export Plug-In . SVG Version: 6.00 Build 0)  -->
<!DOCTYPE svg PUBLIC "-//W3C//DTD SVG 1.1//EN" "http://www.w3.org/Graphics/SVG/1.1/DTD/svg11.dtd">
<svg version="1.1" id="Your_Icon" xmlns="http://www.w3.org/2000/svg" xmlns:xlink="http://www.w3.org/1999/xlink" x="0px" y="0px"
	 width="100px" height="100px" viewBox="0 0 100 100" enable-background="new 0 0 100 100" xml:space="preserve">
<path d="M84.759,79.685c-2.059-4.628-12.106-7.691-18.782-10.566c-6.675-2.876-5.764-4.62-6.003-7.004
	c-0.035-0.344-0.057-0.71-0.07-1.085c2.004-1.914,3.649-4.405,4.75-7.242c0,0,0.063-0.159,0.082-0.208
	c0.256-0.679,0.482-1.388,0.678-2.11c1.531-0.303,2.422-1.927,2.763-3.43c0.344-0.608,1.06-2.106,0.896-3.807
	c-0.212-2.189-1.117-3.202-2.134-3.625c0.001-0.031,0-0.059,0.001-0.09c0.634-2.104,1.237-4.269,1.313-7.667
	c0.059-2.696-0.754-4.811-2.26-7.069c-0.21-0.317-7.453-9.735-7.49-10.094c-0.229,0.473,0.075,2.549-1.347,2.115
	c0.179,0.055,0.925-1.134,0.214-2.521c-0.346,1.241-1.206,1.999-2.582,2.276c0.609-0.543,1.018-1.214,1.225-2.013
	c-0.664,0.73-1.524,1.007-2.582,0.831c-0.025-0.702,0.223-1.328,0.744-1.881c-0.791,0.536-1.682,0.828-2.67,0.875
	c-0.214-0.798-0.155-1.586,0.176-2.363c-0.893,1.059-2.002,1.832-3.327,2.319c-0.506-0.694-0.506-1.481,0-2.363
	c-0.62,1.057-1.393,1.99-2.319,2.801c-0.282-0.626-0.458-1.282-0.525-1.969c-2.443,4.229-6.97,7.39-10.565,10.693
	c-4.563,5.125-3.662,10.546-2.055,16.199c-0.943,0.465-1.758,1.481-1.957,3.544c-0.165,1.7,0.551,3.199,0.895,3.807
	c0.347,1.528,1.264,3.184,2.843,3.444c0.196,0.726,0.426,1.438,0.685,2.124c0.017,0.045,0.035,0.089,0.053,0.132l0.024,0.06
	c1.125,2.895,2.815,5.431,4.877,7.358c-0.013,0.33-0.034,0.652-0.065,0.957c-0.24,2.384,0.462,4.128-6.214,7.003
	c-6.676,2.876-16.724,5.939-18.782,10.567c-2.059,4.63-1.237,7.354-1.237,7.354h71.978C85.988,87.037,86.818,84.313,84.759,79.685z"
	/>
</svg>
