<?xml version="1.0" encoding="utf-8"?>
<!-- Generator: Adobe Illustrator 16.0.0, SVG Export Plug-In . SVG Version: 6.00 Build 0)  -->
<!DOCTYPE svg PUBLIC "-//W3C//DTD SVG 1.1//EN" "http://www.w3.org/Graphics/SVG/1.1/DTD/svg11.dtd">
<svg version="1.1" id="Your_Icon" xmlns="http://www.w3.org/2000/svg" xmlns:xlink="http://www.w3.org/1999/xlink" x="0px" y="0px"
	 width="100px" height="100px" viewBox="0 0 100 100" enable-background="new 0 0 100 100" xml:space="preserve">
<path d="M85.205,79.591c-2.085-4.688-12.262-7.79-19.024-10.703c-6.762-2.913-5.838-4.679-6.08-7.095
	C60.062,61.41,60.038,61,60.026,60.58c2.071-1.949,3.77-4.506,4.9-7.422c0,0,0.064-0.161,0.082-0.211
	c0.259-0.688,0.49-1.406,0.688-2.138c1.55-0.306,2.453-1.951,2.799-3.473c0.348-0.616,1.072-2.133,0.906-3.856
	c-0.168-1.743-0.771-2.746-1.521-3.305c1.241-6.871,0.077-10.481-0.814-14.462c-0.677-3.019,2.818,0.213,2.818,0.213
	c0.159-2.766-4.741-5.979-5.71-8.304c-0.283-0.682,2.506,0.289,2.506,0.289c-8.656-9.165-25.339-2.794-25.339-2.794
	s-6.617-1.543-7.842-0.012c-0.078,0.097,1.602-0.097,2.251,1.028c0.822,1.425-2.695,3.513-2.695,3.513
	c-2.972,2.097-2.505,3.662-2.505,3.662c0.917-1.033,2.849-0.492,2.849-0.492s-4.03,3.267-3.165,5
	c0.088,0.178,2.187-2.019,2.34,0.745c0.193,3.478-0.327,5.428,0.213,11.315c-0.97,0.463-1.811,1.492-2.016,3.605
	c-0.167,1.723,0.558,3.24,0.907,3.856c0.351,1.548,1.279,3.224,2.879,3.488c0.199,0.735,0.432,1.457,0.694,2.152
	c0.017,0.045,0.035,0.09,0.053,0.134l0.024,0.06c1.125,2.896,2.81,5.438,4.864,7.381c-0.012,0.43-0.036,0.851-0.075,1.242
	c-0.243,2.416,0.468,4.182-6.293,7.095c-6.761,2.912-16.938,6.015-19.023,10.703c-2.087,4.688-1.253,7.446-1.253,7.446h72.901
	C86.45,87.037,87.29,84.278,85.205,79.591z"/>
</svg>
