<?xml version="1.0" encoding="utf-8"?>
<!-- Generator: Adobe Illustrator 16.0.0, SVG Export Plug-In . SVG Version: 6.00 Build 0)  -->
<!DOCTYPE svg PUBLIC "-//W3C//DTD SVG 1.1//EN" "http://www.w3.org/Graphics/SVG/1.1/DTD/svg11.dtd">
<svg version="1.1" id="Layer_1" xmlns="http://www.w3.org/2000/svg" xmlns:xlink="http://www.w3.org/1999/xlink" x="0px" y="0px"
	 width="17.383px" height="17.383px" viewBox="42.863 25.447 17.383 17.383" enable-background="new 42.863 25.447 17.383 17.383"
	 xml:space="preserve">
<g>
	<g>
		<rect x="50.985" y="31.217" transform="matrix(0.7071 0.7071 -0.7071 0.7071 39.2383 -26.4552)" width="1.137" height="5.84"/>
		<path d="M58.576,26.311l-0.359,0.359l0.805,0.804l0.358-0.359c0.222-0.222,0.222-0.582,0-0.804S58.798,26.088,58.576,26.311z"/>
		<path d="M43.727,41.16c-0.222,0.222-0.222,0.582,0,0.804c0.222,0.222,0.583,0.222,0.804,0l0.359-0.358l-0.804-0.804L43.727,41.16z
			"/>
		<path d="M45.699,34.129l-0.957,0.957c-0.284,0.284-0.284,0.745,0,1.03l0.616,0.616c0.017,0.014,0.033,0.028,0.049,0.044
			l1.352,1.352l0.804,0.804l1.355,1.355c0.016,0.015,0.03,0.032,0.044,0.048l0.616,0.616c0.284,0.284,0.746,0.285,1.03,0
			l0.957-0.957c0.284-0.284,0.284-0.746,0-1.03l-2.017-2.017l-0.804-0.805l-2.014-2.014C46.444,33.844,45.983,33.844,45.699,34.129z
			"/>
		<path d="M44.033,37.119l-0.957,0.957c-0.285,0.285-0.285,0.746,0,1.031l1.352,1.352l0.804,0.804l1.354,1.355
			c0.285,0.284,0.746,0.284,1.03,0l0.957-0.957c0.269-0.269,0.283-0.695,0.044-0.981l-1.401-1.401l-0.804-0.804l-1.398-1.398
			C44.728,36.835,44.302,36.85,44.033,37.119z"/>
		<path d="M46.416,38.471l-1.352-1.352c-0.016-0.015-0.032-0.03-0.049-0.044l1.398,1.398L46.416,38.471z"/>
		<path d="M48.619,40.679c-0.014-0.017-0.029-0.033-0.044-0.049l-1.354-1.355l-0.002,0.002L48.619,40.679z"/>
		<rect x="46.248" y="38.873" transform="matrix(0.7071 0.7071 -0.7071 0.7071 41.2006 -21.7181)" width="1.137" height="0.003"/>
		<path d="M55.544,29.342l-1.352-1.352c-0.017-0.016-0.03-0.032-0.045-0.049l-0.615-0.616c-0.285-0.285-0.746-0.285-1.03,0
			l-0.957,0.957c-0.284,0.285-0.284,0.746,0,1.03l2.015,2.014l0.804,0.804l2.018,2.017c0.284,0.285,0.745,0.285,1.029,0l0.957-0.957
			c0.284-0.284,0.284-0.746,0-1.03l-0.615-0.616c-0.017-0.014-0.034-0.028-0.049-0.044l-1.355-1.355L55.544,29.342z"/>
		<path d="M55.491,25.66l-0.956,0.957c-0.269,0.269-0.283,0.696-0.044,0.981l1.398,1.399l0.804,0.804l1.401,1.401
			c0.286,0.239,0.713,0.225,0.981-0.044l0.956-0.956c0.285-0.284,0.285-0.746,0-1.03l-1.354-1.355l-0.805-0.804l-1.352-1.352
			C56.237,25.376,55.776,25.376,55.491,25.66z"/>
		<path d="M54.491,27.598c0.014,0.017,0.028,0.033,0.044,0.049l1.352,1.352l0.003-0.002L54.491,27.598z"/>
		<path d="M56.691,29.804l1.354,1.354c0.016,0.016,0.032,0.03,0.049,0.044l-1.401-1.401L56.691,29.804z"/>
		<rect x="56.289" y="28.831" width="0.003" height="1.137"/>
	</g>
</g>
</svg>
