<?xml version="1.0" encoding="utf-8"?>
<!-- Generator: Adobe Illustrator 16.0.0, SVG Export Plug-In . SVG Version: 6.00 Build 0)  -->
<!DOCTYPE svg PUBLIC "-//W3C//DTD SVG 1.1//EN" "http://www.w3.org/Graphics/SVG/1.1/DTD/svg11.dtd">
<svg version="1.1" id="Your_Icon" xmlns="http://www.w3.org/2000/svg" xmlns:xlink="http://www.w3.org/1999/xlink" x="0px" y="0px"
	 width="100px" height="100px" viewBox="0 0 100 100" enable-background="new 0 0 100 100" xml:space="preserve">
<path d="M84.977,79.913c-1.995-4.484-11.73-7.453-18.199-10.24c-6.469-2.786-5.586-4.476-5.817-6.786
	c-0.06-0.6-0.082-1.271-0.081-1.937c1.41-1.48,2.637-3.336,3.608-5.298c1.212-0.688,2.671-1.084,3.641-2.055
	c1.083-1.082,1.449-2.77,2.304-4.047c0.848-1.267,2.271-2.248,2.861-3.672c0.581-1.401,0.273-3.099,0.575-4.621
	C74.16,39.78,75.1,38.33,75.1,36.766c0-1.564-0.939-3.013-1.231-4.491c-0.302-1.522,0.006-3.22-0.575-4.621
	c-0.591-1.425-2.015-2.406-2.861-3.672c-0.855-1.276-1.221-2.965-2.304-4.048c-1.082-1.082-2.771-1.448-4.046-2.303
	c-1.268-0.848-2.248-2.271-3.674-2.862c-1.4-0.581-3.099-0.274-4.621-0.575c-1.478-0.292-2.928-1.232-4.49-1.232
	c-1.563,0-3.014,0.939-4.491,1.232c-1.522,0.301-3.221-0.006-4.621,0.575c-1.425,0.591-2.406,2.015-3.672,2.862
	c-1.276,0.854-2.964,1.221-4.047,2.303c-1.082,1.083-1.449,2.771-2.303,4.048c-0.848,1.267-2.272,2.247-2.863,3.672
	c-0.581,1.401-0.273,3.099-0.575,4.621c-0.292,1.478-1.231,2.928-1.231,4.491s0.939,3.013,1.231,4.491
	c0.302,1.522-0.006,3.22,0.575,4.621c0.591,1.425,2.015,2.407,2.863,3.673c0.854,1.276,1.221,2.964,2.303,4.046
	c0.971,0.971,2.43,1.367,3.641,2.055c1.02,2.058,2.318,4.001,3.816,5.515c-0.004,0.593-0.027,1.186-0.081,1.721
	c-0.232,2.31,0.448,4-6.021,6.786c-6.469,2.787-16.204,5.755-18.199,10.24c-1.996,4.483-1.198,7.123-1.198,7.123h69.744
	C86.168,87.037,86.971,84.397,84.977,79.913z"/>
</svg>
